<?xml version="1.0" encoding="UTF-8"?>
<svg id="Capa_1" xmlns="http://www.w3.org/2000/svg" version="1.1" viewBox="0 0 243.1 369.3">
  <!-- Generator: Adobe Illustrator 29.3.1, SVG Export Plug-In . SVG Version: 2.1.0 Build 151)  -->
  <path d="M234.2,253.9c-5.9-9.7-14.5-18-25.9-24.9-11.4-6.9-25.3-13.4-41.8-19.4-15.2-5.8-27.2-11.1-36.1-16.1-8.9-5-15.3-10.6-19.2-16.9s-5.9-14.1-5.9-23.6,4.4-22.2,13.3-29.6c8.9-7.5,22.1-11.2,39.7-11.2s24.1,1.4,35.5,4.3,21.9,6.4,31.6,10.6l11-30.2c-10.5-4.7-22.1-8.5-34.9-11.4-12.8-2.9-27-4.3-42.4-4.3s-33,2.9-46.5,8.6c-13.5,5.8-24,13.9-31.6,24.5-2.3,3.3-4.3,6.8-5.9,10.4V-.2H1.5v306.2h195.9v-41.1c1.7,1.8,3.2,3.7,4.4,5.6,3.9,6.3,5.9,14,5.9,23.2,0,13.9-5.3,24.9-15.9,33-10.6,8.1-26.4,12.2-47.3,12.2s-29.4-1.7-43.4-5.1c-14-3.4-25.7-7.2-35.1-11.4v33.8c8.9,4.2,20,7.5,33.4,9.8,13.3,2.4,27.9,3.5,43.6,3.5,30.6,0,55-6.9,73-20.8s27.1-33.2,27.1-58.1-2.9-26.8-8.8-36.5h0ZM75,184.1c3,7.6,7.3,14.3,12.8,20,12.2,12.6,30.2,23.2,54,31.8,12.5,4.4,23,8.7,31.5,12.8h-98.3s0-64.6,0-64.6Z"/>
</svg>